<svg xmlns="http://www.w3.org/2000/svg" xmlns:xlink="http://www.w3.org/1999/xlink" width="500" zoomAndPan="magnify" viewBox="0 0 375 374.999991" height="500" preserveAspectRatio="xMidYMid meet" version="1.0"><path fill="#001f3f" d="M 334.796875 185.589844 C 334.796875 187.902344 334.742188 190.21875 334.628906 192.53125 C 334.515625 194.84375 334.34375 197.152344 334.117188 199.457031 C 333.890625 201.761719 333.605469 204.058594 333.265625 206.347656 C 332.929688 208.636719 332.53125 210.917969 332.082031 213.191406 C 331.628906 215.460938 331.121094 217.71875 330.558594 219.964844 C 329.996094 222.210938 329.378906 224.441406 328.707031 226.660156 C 328.035156 228.875 327.308594 231.074219 326.53125 233.253906 C 325.75 235.433594 324.917969 237.59375 324.03125 239.730469 C 323.144531 241.871094 322.207031 243.988281 321.21875 246.082031 C 320.230469 248.171875 319.1875 250.242188 318.097656 252.28125 C 317.007812 254.324219 315.867188 256.339844 314.675781 258.324219 C 313.484375 260.3125 312.246094 262.265625 310.960938 264.191406 C 309.675781 266.117188 308.34375 268.011719 306.964844 269.871094 C 305.585938 271.730469 304.164062 273.554688 302.695312 275.34375 C 301.226562 277.132812 299.714844 278.886719 298.160156 280.601562 C 296.605469 282.320312 295.007812 283.996094 293.371094 285.632812 C 291.734375 287.269531 290.058594 288.867188 288.34375 290.421875 C 286.628906 291.976562 284.878906 293.488281 283.089844 294.957031 C 281.300781 296.425781 279.476562 297.851562 277.617188 299.230469 C 275.757812 300.609375 273.863281 301.941406 271.941406 303.226562 C 270.015625 304.515625 268.0625 305.753906 266.074219 306.941406 C 264.089844 308.132812 262.078125 309.273438 260.035156 310.367188 C 257.992188 311.457031 255.925781 312.496094 253.835938 313.488281 C 251.742188 314.476562 249.625 315.417969 247.488281 316.300781 C 245.347656 317.1875 243.191406 318.019531 241.011719 318.800781 C 238.832031 319.582031 236.632812 320.308594 234.417969 320.980469 C 232.203125 321.652344 229.972656 322.269531 227.730469 322.832031 C 225.484375 323.394531 223.226562 323.902344 220.957031 324.351562 C 218.683594 324.804688 216.40625 325.199219 214.117188 325.539062 C 211.828125 325.878906 209.53125 326.164062 207.226562 326.390625 C 204.921875 326.617188 202.613281 326.789062 200.304688 326.902344 C 197.992188 327.015625 195.675781 327.070312 193.363281 327.070312 C 191.046875 327.070312 188.734375 327.015625 186.421875 326.902344 C 184.109375 326.789062 181.804688 326.617188 179.5 326.390625 C 177.195312 326.164062 174.898438 325.878906 172.609375 325.539062 C 170.320312 325.199219 168.039062 324.804688 165.769531 324.351562 C 163.5 323.902344 161.242188 323.394531 158.996094 322.832031 C 156.75 322.269531 154.523438 321.652344 152.304688 320.980469 C 150.089844 320.308594 147.894531 319.582031 145.714844 318.800781 C 143.535156 318.019531 141.375 317.1875 139.238281 316.300781 C 137.101562 315.417969 134.984375 314.476562 132.890625 313.488281 C 130.800781 312.496094 128.730469 311.457031 126.691406 310.367188 C 124.648438 309.273438 122.636719 308.132812 120.652344 306.941406 C 118.664062 305.753906 116.710938 304.515625 114.785156 303.226562 C 112.859375 301.941406 110.96875 300.609375 109.109375 299.230469 C 107.25 297.851562 105.425781 296.425781 103.636719 294.957031 C 101.847656 293.488281 100.097656 291.976562 98.382812 290.421875 C 96.664062 288.867188 94.988281 287.269531 93.351562 285.632812 C 91.714844 283.996094 90.121094 282.320312 88.566406 280.601562 C 87.011719 278.886719 85.5 277.132812 84.03125 275.34375 C 82.5625 273.554688 81.140625 271.730469 79.761719 269.871094 C 78.382812 268.011719 77.050781 266.117188 75.765625 264.191406 C 74.476562 262.265625 73.238281 260.3125 72.050781 258.324219 C 70.859375 256.339844 69.71875 254.324219 68.628906 252.28125 C 67.539062 250.242188 66.496094 248.171875 65.507812 246.082031 C 64.515625 243.988281 63.578125 241.871094 62.695312 239.730469 C 61.808594 237.59375 60.976562 235.433594 60.195312 233.253906 C 59.414062 231.074219 58.691406 228.875 58.019531 226.660156 C 57.347656 224.441406 56.730469 222.210938 56.167969 219.964844 C 55.605469 217.71875 55.097656 215.460938 54.644531 213.191406 C 54.195312 210.917969 53.796875 208.636719 53.457031 206.347656 C 53.117188 204.058594 52.835938 201.761719 52.609375 199.457031 C 52.382812 197.152344 52.210938 194.84375 52.097656 192.53125 C 51.984375 190.21875 51.929688 187.902344 51.929688 185.589844 C 51.929688 183.273438 51.984375 180.957031 52.097656 178.644531 C 52.210938 176.332031 52.382812 174.023438 52.609375 171.71875 C 52.835938 169.414062 53.117188 167.117188 53.457031 164.828125 C 53.796875 162.539062 54.195312 160.257812 54.644531 157.984375 C 55.097656 155.714844 55.605469 153.457031 56.167969 151.210938 C 56.730469 148.964844 57.347656 146.734375 58.019531 144.515625 C 58.691406 142.300781 59.414062 140.105469 60.195312 137.921875 C 60.976562 135.742188 61.808594 133.582031 62.695312 131.445312 C 63.578125 129.304688 64.515625 127.1875 65.507812 125.097656 C 66.496094 123.003906 67.539062 120.933594 68.628906 118.894531 C 69.71875 116.851562 70.859375 114.835938 72.050781 112.851562 C 73.238281 110.863281 74.476562 108.910156 75.765625 106.984375 C 77.050781 105.058594 78.382812 103.164062 79.761719 101.304688 C 81.140625 99.445312 82.5625 97.621094 84.03125 95.832031 C 85.5 94.042969 87.011719 92.289062 88.566406 90.574219 C 90.121094 88.859375 91.714844 87.179688 93.351562 85.542969 C 94.988281 83.90625 96.664062 82.308594 98.382812 80.753906 C 100.097656 79.199219 101.847656 77.6875 103.636719 76.21875 C 105.425781 74.75 107.25 73.328125 109.109375 71.945312 C 110.96875 70.566406 112.859375 69.234375 114.785156 67.949219 C 116.710938 66.660156 118.664062 65.421875 120.652344 64.234375 C 122.636719 63.042969 124.648438 61.902344 126.691406 60.808594 C 128.730469 59.71875 130.800781 58.679688 132.890625 57.6875 C 134.984375 56.699219 137.101562 55.761719 139.238281 54.875 C 141.375 53.988281 143.535156 53.15625 145.714844 52.375 C 147.894531 51.59375 150.089844 50.867188 152.304688 50.195312 C 154.523438 49.523438 156.75 48.90625 158.996094 48.34375 C 161.242188 47.78125 163.5 47.273438 165.769531 46.824219 C 168.039062 46.371094 170.320312 45.976562 172.609375 45.636719 C 174.898438 45.296875 177.195312 45.011719 179.5 44.785156 C 181.804688 44.558594 184.109375 44.386719 186.421875 44.273438 C 188.734375 44.160156 191.046875 44.105469 193.363281 44.105469 C 195.675781 44.105469 197.992188 44.160156 200.304688 44.273438 C 202.613281 44.386719 204.921875 44.558594 207.226562 44.785156 C 209.53125 45.011719 211.828125 45.296875 214.117188 45.636719 C 216.40625 45.976562 218.683594 46.371094 220.957031 46.824219 C 223.226562 47.273438 225.484375 47.78125 227.730469 48.34375 C 229.972656 48.90625 232.203125 49.523438 234.417969 50.195312 C 236.632812 50.867188 238.832031 51.59375 241.011719 52.375 C 243.191406 53.15625 245.347656 53.988281 247.488281 54.875 C 249.625 55.761719 251.742188 56.699219 253.835938 57.6875 C 255.925781 58.679688 257.992188 59.71875 260.035156 60.808594 C 262.078125 61.902344 264.089844 63.042969 266.074219 64.234375 C 268.0625 65.421875 270.015625 66.660156 271.941406 67.949219 C 273.863281 69.234375 275.757812 70.566406 277.617188 71.945312 C 279.476562 73.328125 281.300781 74.75 283.089844 76.21875 C 284.878906 77.6875 286.628906 79.199219 288.34375 80.753906 C 290.058594 82.308594 291.734375 83.90625 293.371094 85.542969 C 295.007812 87.179688 296.605469 88.859375 298.160156 90.574219 C 299.714844 92.289062 301.226562 94.042969 302.695312 95.832031 C 304.164062 97.621094 305.585938 99.445312 306.964844 101.304688 C 308.34375 103.164062 309.675781 105.058594 310.960938 106.984375 C 312.246094 108.910156 313.484375 110.863281 314.675781 112.851562 C 315.867188 114.835938 317.007812 116.851562 318.097656 118.894531 C 319.1875 120.933594 320.230469 123.003906 321.21875 125.097656 C 322.207031 127.1875 323.144531 129.304688 324.03125 131.445312 C 324.917969 133.582031 325.75 135.742188 326.53125 137.921875 C 327.308594 140.105469 328.035156 142.300781 328.707031 144.515625 C 329.378906 146.734375 329.996094 148.964844 330.558594 151.210938 C 331.121094 153.457031 331.628906 155.714844 332.082031 157.984375 C 332.53125 160.257812 332.929688 162.539062 333.265625 164.828125 C 333.605469 167.117188 333.890625 169.414062 334.117188 171.71875 C 334.34375 174.023438 334.515625 176.332031 334.628906 178.644531 C 334.742188 180.957031 334.796875 183.273438 334.796875 185.589844 Z M 334.796875 185.589844 " fill-opacity="1" fill-rule="nonzero"/><path fill="#ffffff" d="M 81.589844 155.457031 C 83.265625 144.621094 91.65625 129.574219 97.917969 120.882812 C 114.085938 98.347656 136.363281 82.066406 161.277344 74.574219 C 167.828125 72.59375 174.382812 71.402344 181.066406 70.402344 C 181.550781 70.320312 182.03125 70.261719 182.515625 70.210938 C 213.945312 66.707031 244.863281 77.261719 268.300781 99.5 C 290.011719 119.769531 303.09375 149.128906 304.601562 180.96875 C 305.019531 189.421875 304.785156 197.78125 303.546875 206.21875 C 300.851562 224.59375 293.113281 243.96875 281.835938 258.171875 C 278.378906 262.527344 273.871094 267.191406 268.417969 267.589844 C 265.339844 267.832031 262.351562 266.6875 260.136719 264.421875 C 254.59375 258.835938 252.734375 246.234375 252.082031 238.140625 C 251.621094 232.457031 251.800781 227.007812 249.890625 221.632812 C 248.207031 216.878906 242.191406 211.984375 242.238281 207.761719 C 242.257812 206.222656 242.699219 204.355469 243.742188 203.226562 C 246.433594 200.324219 250.769531 203.820312 253.5625 204.769531 C 255.425781 205.402344 257.265625 205.566406 259.226562 205.542969 C 264.144531 205.480469 268.765625 203.929688 272.363281 199.941406 C 278.050781 193.628906 279.878906 183.804688 280.03125 175.410156 C 280.050781 175.023438 280.058594 175.019531 280.039062 174.558594 C 279.460938 158.195312 269.050781 142.183594 258.261719 132 C 248.5625 122.851562 233.765625 114.230469 220.402344 115.710938 C 217.730469 116.007812 214.4375 116.859375 212.664062 119.328125 C 210.363281 122.53125 212.660156 125.476562 212.855469 128.816406 C 212.921875 129.90625 212.8125 131.234375 212.027344 132.054688 C 211.414062 132.695312 210.480469 132.847656 209.683594 132.847656 C 205.304688 132.851562 202.332031 127.753906 199.527344 124.6875 C 190.386719 114.699219 174.839844 112.394531 162.292969 112.820312 C 157.664062 112.980469 153.15625 113.8125 148.59375 114.742188 C 127.097656 119.097656 106.890625 129.898438 90.222656 145.945312 C 87.132812 148.910156 84.441406 152.226562 81.589844 155.457031 Z M 81.589844 155.457031 " fill-opacity="1" fill-rule="nonzero"/></svg>